<svg xmlns="http://www.w3.org/2000/svg" viewBox="0 0 1800 1800" width="1800" height="1800"><g transform="translate(991.0 1191.0) rotate(0.0 222.0 37.0) scale(1.1425748077695086 1.128065976615497)"><svg width="388.596" height="65.599" viewBox="0 0 388.596 65.599"><ellipse cx="194.298" cy="32.799" fill="#cbc8ff" rx="194.298" ry="32.799"/></svg></g><g transform="translate(577.0 649.0) rotate(0.0 438.5 307.5) scale(1.015228426395939 1.0155620434099106)"><svg width="863.845" height="605.576" viewBox="0 0 863.845 605.576"><path d="M354.174 409.498c-5.76 3.29-11.74 6.64-17.83 9.99-29.69 16.36-61.7 32.63-81.34 40.76-56.54 23.38-187.77 34.99-239.38-102.62-13.28-35.42-16.3-79.98-13.84-123.74.47-8.34 1.13-16.64 1.96-24.85 6.83-67.57 24.87-128.52 35.61-144.54 15-21.19 49.76-22.16 60.83-24.43 7.01-1.44 12.98-8.66 31 4 9.48 6.66 15-10 21 21 19-35 56-48 67-40 13.46 9.79-4 39-15 57-18.81 30.78-37.25 73.93-39.11 123.77-2.05 55.32 14.88 85.74 14.88 85.74s23.54-4.64 66.02-47.67c48.91-49.57 158.72 122.6 162.04 129.08 1.581 3.09-22.9 18.85-53.84 36.51z" fill="#ffd6c0"/><path d="M178.782 475.62c-23.541 0-48.503-3.998-72.147-14.273-42.158-18.32-73.093-53.098-91.947-103.367C2.639 325.842-2.038 284.074.786 233.832a565.9 565.9 0 0 1 1.963-24.895c3.092-30.587 8.904-63.172 16.366-91.754 6.505-24.914 13.76-44.817 19.408-53.242C51.306 45.882 78.3 42.182 92.803 40.195c2.887-.396 5.38-.737 7.18-1.106 1.332-.273 2.656-.781 4.059-1.318 5.744-2.197 12.892-4.935 27.716 5.479 2.838 1.992 5.265 1.662 7.614 1.343 5.694-.773 9.465-.314 13.258 17.639 13.896-23.913 35.33-36.196 49.809-39.47 7.513-1.698 13.669-1.167 17.333 1.498 14.477 10.529-4.526 41.625-14.735 58.33-16.696 27.319-37.009 70.885-38.964 123.285-1.852 49.979 12.033 79.837 14.412 84.559 8.724-2.157 32.376-14.409 64.777-47.228 7.394-7.494 16.589-10.457 27.341-8.802 15.646 2.406 43.537 16.54 87.557 70.206 26.444 32.239 47.091 64.696 48.744 67.922.673 1.317 2.723 5.324-54.234 37.834a1272.77 1272.77 0 0 1-17.844 9.998c-31.934 17.596-63.14 33.232-81.439 40.808-19.641 8.122-46.998 14.448-76.605 14.448zM113.06 37.72c-3.292 0-5.867.986-8.302 1.919-1.481.566-2.88 1.103-4.373 1.409-1.865.383-4.388.729-7.31 1.129-14.202 1.946-40.638 5.569-52.905 22.899C24.352 88.671 9.177 165.241 4.74 209.139a563.28 563.28 0 0 0-1.957 24.806c-2.809 49.962 1.827 91.457 13.778 123.333 18.656 49.742 49.229 84.14 90.871 102.235 52.81 22.949 112.296 14.242 147.191-.188 18.236-7.549 49.366-23.149 81.24-40.712a1299.879 1299.879 0 0 0 17.816-9.982c41.446-23.657 53.04-33.261 53.401-35.271-1.933-3.645-22.335-35.623-48.465-67.479-43.618-53.177-71.014-67.145-86.314-69.498-10.079-1.556-18.696 1.218-25.614 8.229-42.211 42.757-65.565 47.757-66.539 47.949a1.001 1.001 0 0 1-1.067-.495c-.17-.307-17.042-31.3-15.005-86.264 1.972-52.832 22.436-96.73 39.256-124.254 9.873-16.155 28.25-46.226 15.265-55.67-3.145-2.287-8.873-2.711-15.715-1.165-14.54 3.287-36.311 15.954-49.817 40.834a1.002 1.002 0 0 1-1.861-.287c-3.82-19.739-7.067-19.296-11.56-18.685-2.472.338-5.552.758-9.033-1.688-7.864-5.524-13.303-7.167-17.551-7.167z" fill="#112c41"/><path d="M381.184 372.068s-17.94 20.21-44.84 47.42c-29.69 16.36-61.7 32.63-81.34 40.76-56.54 23.38-187.77 34.99-239.38-102.62-13.28-35.42-16.3-79.98-13.84-123.74.47-8.34 1.13-16.64 1.96-24.85-.56 120.03 52.762 217.771 136.44 237.03 126 29 241-74 241-74z" fill="#f5b9ab"/><path d="M178.777 475.62c-23.542.001-48.501-3.998-72.146-14.273-42.156-18.32-73.09-53.099-91.941-103.369C2.639 325.848-2.04 284.08.782 233.832c4.23-75.661 25.178-151.158 37.74-169.893 12.787-18.053 39.781-21.755 54.283-23.743 2.887-.396 5.38-.737 7.179-1.106 1.333-.273 2.659-.781 4.062-1.318 5.741-2.197 12.887-4.932 27.713 5.479 2.838 1.994 5.266 1.661 7.614 1.342 5.691-.774 9.465-.313 13.258 17.64 13.896-23.913 35.33-36.196 49.809-39.47 7.513-1.698 13.669-1.167 17.333 1.498 14.477 10.528-4.526 41.624-14.735 58.33-16.699 27.325-37.013 70.895-38.959 123.285-1.855 49.981 12.026 79.839 14.405 84.561 8.726-2.158 32.381-14.412 64.779-47.233 7.396-7.495 16.598-10.458 27.351-8.798 15.647 2.411 43.538 16.55 87.554 70.212 26.461 32.261 47.089 64.695 48.737 67.917.673 1.317 2.719 5.326-54.238 37.832-36.472 20.822-77.297 41.714-99.277 50.804-19.643 8.121-47.005 14.448-76.613 14.449zM113.059 37.722c-3.291 0-5.865.985-8.298 1.917-1.482.567-2.882 1.103-4.375 1.409-1.864.382-4.387.729-7.309 1.129-14.202 1.947-40.637 5.572-52.908 22.896-12.424 18.529-33.179 93.544-37.39 168.87-2.807 49.97 1.831 91.465 13.784 123.332 18.653 49.744 49.225 84.142 90.865 102.237 52.808 22.95 112.299 14.24 147.197-.19 21.912-9.062 62.643-29.907 99.051-50.692 41.451-23.657 53.044-33.261 53.404-35.271-1.928-3.639-22.312-35.596-48.459-67.474-43.614-53.173-71.01-67.145-86.312-69.504-10.083-1.548-18.702 1.215-25.623 8.226-42.207 42.76-65.567 47.763-66.541 47.955a.998.998 0 0 1-1.067-.495c-.17-.307-17.038-31.299-14.998-86.266 1.962-52.822 22.428-96.726 39.251-124.254 9.873-16.155 28.25-46.227 15.265-55.67-3.145-2.288-8.874-2.713-15.715-1.164-14.54 3.286-36.311 15.953-49.817 40.833a1.002 1.002 0 0 1-1.861-.287c-3.82-19.741-7.063-19.295-11.56-18.686-2.474.337-5.552.758-9.033-1.687-7.864-5.52-13.304-7.164-17.551-7.164z" fill="#112c41"/><path d="M857.089 270.558c-31.873 36.615-144.116 83.977-193.306 82.222a49.036 49.036 0 0 1-1.749-.079l-.072.045c-12.653 31.513-142.133 147.308-316.796 63.664a370.972 370.972 0 0 1-19.893-10.299c-42.886-23.87-88.471-124.927-98.453-163.746-.787-3.062.071-6.32 2.299-8.564 10.448-10.522 23.283-24.042 34.065-33.733 79-71 158.071-102.464 232.097-111.987 8.051-1.033 15.806-1.976 23.249-2.489 10.027-.687 20.683-.933 31.802-.658 88.326 2.174 206.75 36.655 285.628 130.001a330.22 330.22 0 0 1 23.169 30.953c6.752 10.224 3.226 18.604-2.04 24.67z" fill="#ffe993"/><path d="M392.184 434.068c-6.563-3.15-38-12-66.911-27.957-42.71-23.574-78.089-101.043-99.267-162.03-1.201-3.458.132-7.293 2.716-9.886 10.263-10.295 21.509-23.06 32.462-32.126.253.204 0 0 0 0-1.297.563 36.132 92.138 55 121 13.863 21.203 41 96.999 76 110.999z" fill="#fff"/><path d="M699.136 313.219c-11.386 88.7-84.038 155.642-176.614 161.523-104.999 6.671-195.524-73.039-202.195-178.038a193.173 193.173 0 0 1-.371-14.95" fill="#ffe993"/><path d="M510.316 476.13c-100.104 0-184.553-78.092-190.987-179.362a194.948 194.948 0 0 1-.373-15.026c.008-.553.493-1.027 1.014-.986a1 1 0 0 1 .986 1.014c-.069 4.926.055 9.93.369 14.872 6.625 104.28 96.857 183.713 201.134 177.104 44.48-2.826 86.437-20.386 118.141-49.444 31.624-28.984 52.06-68.479 57.545-111.208a1 1 0 1 1 1.983.254c-5.545 43.198-26.206 83.126-58.177 112.429-32.04 29.366-74.431 47.11-119.366 49.966-4.11.258-8.206.387-12.269.387z" fill="#112c41"/><path d="M699.134 313.218c-11.38 88.7-84.04 155.64-176.61 161.52-47.55 3.02-92.14-11.67-127.3-38.41 185.96 42.74 279.96-106.26 278.96-152.26zm139.542-53.597c6.829 10.852 2.96 19.544-2.695 25.778-3.935 4.328-8.983 8.788-14.922 13.274 15.452-9.429 28.179-19.099 36.028-28.117 5.271-6.064 8.791-14.445 2.046-24.665C781.961 129.083 647.807 87.34 550.336 84.931a343.73 343.73 0 0 0-18.717.04c100.619 7.854 232.053 55.678 307.057 174.65z" fill="#ffd169"/><path d="M857.089 270.558c-31.873 36.615-144.116 83.977-193.306 82.222.474-2.315-12.076-.552-10.599-3.712 9.835-21.046 6.098-55.996 6-61-.107-5.003 42.237-34.987 96-56 34.057-13.311 81-17 80.775-17.132a330.22 330.22 0 0 1 23.169 30.953c6.753 10.223 3.227 18.603-2.039 24.669z" fill="#fff"/><g fill="#112c41"><path d="M394.904 437.09a.974.974 0 0 1-.25-.032c-18.047-4.658-49.636-19.898-72.958-31.863-22.915-13.799-43.573-44.589-56.878-67.994-16.465-28.965-30.807-62.573-39.348-92.208-1.188-4.124.011-8.6 3.206-11.974 81.219-85.764 163.399-130.769 266.463-145.926a307.455 307.455 0 0 1 23.319-2.502c10.273-.703 21.005-.924 31.902-.66 54.591 1.35 112.266 14.729 162.402 37.672 62.254 28.488 111.781 70.12 147.205 123.738 5.831 8.834 5.116 17.538-2.125 25.871-15.249 17.525-49.325 38.571-91.156 56.298-41.84 17.729-80.409 27.471-103.189 26.042a1 1 0 0 1-.936-1.061c.035-.551.509-.949 1.061-.936 22.145 1.39 61.337-8.535 102.284-25.888 40.944-17.351 75.594-38.72 90.427-55.769 6.58-7.571 7.242-15.464 1.966-23.457-35.214-53.301-84.459-94.691-146.368-123.021-49.896-22.833-107.292-36.147-161.619-37.49-10.833-.265-21.504-.043-31.715.656a305.532 305.532 0 0 0-23.166 2.484c-102.59 15.088-184.413 59.907-265.302 145.322-2.703 2.854-3.726 6.609-2.736 10.045 8.5 29.49 22.774 62.94 39.165 91.773 23.892 42.028 43.701 59.762 56.112 67.236 23.172 11.885 54.615 27.061 72.485 31.674a1.002 1.002 0 0 1-.251 1.97z"/><path d="M654.184 350.069a1 1 0 0 1-.926-1.377c10.766-26.425 3.02-73.981 2.94-74.459a.998.998 0 0 1 .822-1.15.996.996 0 0 1 1.151.822c.329 1.971 7.92 48.589-3.06 75.541a1.002 1.002 0 0 1-.927.623zM479.518 102.685c.398 10.044 21.063 17.377 46.167 16.383 25.104-.984 45.135-9.933 44.748-19.977-.239-6.178-8.176-11.338-20.097-14.16-11.127-.271-21.777-.029-31.808.658a321.376 321.376 0 0 0-23.243 2.493c-9.841 3.734-15.991 8.995-15.767 14.603zm189.889 238.427c3.857 8.594 48.386-3.036 99.453-25.958 32.645-14.661 60.055-30.38 74.586-42.074 8.205-6.588 12.295-11.892 10.906-14.99-1.219-2.723-6.543-3.422-14.873-2.36-17.906 2.283-49.718 12.664-84.579 28.318-43.192 19.377-77.219 40.644-84.367 51.942-.105.177-.219.354-.324.532a.288.288 0 0 0-.042.079c-1.019 1.803-1.299 3.317-.76 4.511z"/><path d="M677.782 344.968c-5.148 0-8.254-1.147-9.286-3.444-.657-1.456-.402-3.252.756-5.337l.019-.054.4-.652c7.441-11.762 42.313-33.276 84.819-52.345 33.724-15.143 66.241-26.023 84.862-28.397 9.289-1.183 14.495-.221 15.913 2.942 1.596 3.559-2.065 8.851-11.192 16.179-15.158 12.199-43.122 27.978-74.802 42.207-24.752 11.11-48.755 19.937-67.587 24.853-10.338 2.698-18.32 4.048-23.902 4.048zm-6.7-7.96-.045.084c-.865 1.533-1.106 2.747-.718 3.609v.002c1.231 2.741 9.983 3.73 30.858-1.719 18.728-4.89 42.62-13.677 67.273-24.742 31.534-14.163 59.335-29.842 74.369-41.941 11.156-8.957 11.144-12.636 10.62-13.802-.451-1.008-2.7-3.2-13.834-1.776-18.439 2.35-50.739 13.17-84.296 28.237-42.183 18.924-76.696 40.128-83.932 51.563zm-474.92-19.085a.997.997 0 0 1-.764-.354c-6.58-7.782-12.759-17.924-18.89-31.004a1 1 0 0 1 1.811-.85c6.056 12.919 12.143 22.916 18.607 30.562a1 1 0 0 1-.764 1.646z"/></g><ellipse cx="243.805" cy="357.236" fill="#ffd6c0" rx="22.518" ry="49.904" transform="matrix(.7216 -.6923 .6923 .7216 -179.4469 268.2608)"/><path d="M269.077 397.493c-3.699 0-7.985-.945-12.704-2.843-9.723-3.908-20.213-11.412-29.539-21.131-19.762-20.597-27.788-43.883-18.273-53.014 9.517-9.127 32.451-.148 52.212 20.449 19.762 20.597 27.789 43.882 18.273 53.013-2.446 2.348-5.843 3.526-9.969 3.526zm-50.463-78.56c-3.558 0-6.534.969-8.667 3.016-8.561 8.215-.337 30.728 18.332 50.186 9.133 9.519 19.375 16.855 28.841 20.66 9.208 3.701 16.503 3.606 20.543-.271 8.562-8.215.338-30.728-18.332-50.185-14.017-14.608-29.999-23.406-40.717-23.406z" fill="#112c41"/><path d="M834.554 359.168c-4.58 39.51-15.94 73.47-32.15 102.42-51.86 92.64-153.38 134.01-241.8 141.92-31.39 2.81-61.14 1.39-86.42-3.44-27.31-5.22-51.3-11.33-72.46-18.03-1.45-.46-2.9-.93-4.33-1.4-.72-.23-1.43-.46-2.14-.7l-.03-.01c-41.74-13.85-72.49-30.61-99.04-44.86-33.83-18.16-71.65-43.76-71.65-44.16.56-.25-.96-.73-1.45-1.1 0 0 14.15 23.51-1.88 33.29-1.57.97-3.45 1.8-5.64 2.46-15.69 4.71-56.22-19.32-50.99-65.29-11.69-8.84-24.95-30.52-10.99-58.87-20.98-36.78 19.61-75.43 97.51-45.01 58.09 22.68 137.83 69.03 199.09 86.68 59 17 173 19 207-104 3.52-6.19 25.57-18.14 42-28 15-9 35.53-17.97 55.71-27.02 22.42-10.06 43.57-17.95 60.58-22.9.08-.02.16-.05.24-.07.58-.17 1.16-.34 1.74-.5.56-.15 1.11-.3 1.65-.45 7.63-2.06 13.08-3.06 13.08-3.06 5.45 37.54 5.95 71.49 2.37 102.1z" fill="#ffd6c0"/><path d="M153.581 402.393a1 1 0 0 1-.883-1.467c5.667-10.739 19.007-22.057 30.963-22.057.224 0 .446.004.668.013a1 1 0 0 1 .964 1.035c-.02.552-.479.996-1.035.963-8.84-.322-22.739 7.614-29.792 20.979a.996.996 0 0 1-.885.534zm10.993 58.871-.057-.002a.999.999 0 0 1-.943-1.054c.876-15.689 13.597-30.541 25.389-35.835a1 1 0 1 1 .82 1.824c-11.003 4.94-23.388 19.391-24.211 34.122a1 1 0 0 1-.998.945zm58.512 29.541a.999.999 0 0 1-.847-.467c-4.635-7.361-14.394-16.111-21.309-19.107a1 1 0 1 1 .795-1.836c7.223 3.13 17.392 12.232 22.206 19.877a1.002 1.002 0 0 1-.845 1.533z" fill="#112c41"/><path d="M81.847 45.308C81.531 66.3 75.955 84.09 63.79 85.403c-10.779 1.163-20.805-15.11-26.009-35.458C30.557 21.7 43.66 11.039 55.838 9.85c16.001-1.562 26.38 10.85 26.009 35.458z" fill="#ffd6c0"/><path d="M62.716 86.46c-10.145 0-20.209-14-25.903-36.267-3.479-13.601-2.574-24.701 2.616-32.103 3.71-5.291 9.503-8.571 16.312-9.236 6.833-.661 12.83 1.177 17.343 5.332 6.602 6.08 9.979 16.847 9.763 31.136-.369 24.479-7.453 39.834-18.95 41.074-.393.044-.788.064-1.181.064zM58.51 10.717c-.838 0-1.696.042-2.574.128-3.602.352-10.323 1.91-14.87 8.395-4.844 6.908-5.645 17.441-2.316 30.458 5.567 21.771 15.58 35.698 24.933 34.711 10.396-1.122 16.812-15.744 17.165-39.115.207-13.704-2.946-23.951-9.118-29.635-3.568-3.286-8.006-4.942-13.22-4.942zm23.337 34.591h.01z" fill="#112c41"/><path d="M121.047 38.712c-.335 22.245-6.244 41.096-19.135 42.487-11.422 1.234-22.046-16.011-27.56-37.572C66.697 13.696 80.582 2.4 93.487 1.14c16.954-1.657 27.953 11.497 27.56 37.572z" fill="#ffd6c0"/><path d="M100.773 82.261c-10.72 0-21.362-14.819-27.39-38.387-3.681-14.394-2.726-26.14 2.763-33.968C80.067 4.313 86.191.846 93.389.143c7.222-.712 13.562 1.243 18.332 5.636 6.983 6.431 10.554 17.824 10.326 32.947-.39 25.906-7.877 42.155-20.027 43.467a11.34 11.34 0 0 1-1.247.068zM96.317 1.997c-.89 0-1.801.046-2.733.137-3.827.374-10.969 2.03-15.8 8.921-5.144 7.335-5.996 18.513-2.463 32.323 5.707 22.312 15.832 36.88 25.467 36.882.341 0 .679-.019 1.018-.055 11.049-1.192 17.869-16.71 18.242-41.508.219-14.538-3.128-25.412-9.681-31.447-3.793-3.491-8.509-5.253-14.05-5.253z" fill="#112c41"/><path d="M163.089 45.206c-4.548 21.778-13.925 39.166-26.846 38.087-11.449-.956-18.609-19.902-19.934-42.118-1.839-30.839 13.937-39.297 26.846-38.087 16.962 1.59 25.265 16.591 19.934 42.118z" fill="#ffd6c0"/><path d="M137.355 84.34c-.397 0-.794-.017-1.195-.051-11.161-.932-19.345-17.832-20.849-43.055-.884-14.831 2.282-26.183 9.156-32.827 4.911-4.747 11.579-6.983 18.781-6.315 7.226.678 13.081 3.793 16.93 9.01 5.637 7.64 6.982 19.503 3.89 34.309-5.122 24.528-15.05 38.929-26.713 38.929zm3.467-80.36c-4.05 0-9.946 1.014-14.964 5.865-6.442 6.228-9.398 17.04-8.55 31.271 1.42 23.801 9.063 40.35 19.019 41.182 11.091.904 20.714-13.019 25.784-37.295 2.973-14.233 1.748-25.545-3.541-32.713-3.552-4.813-8.77-7.574-15.507-8.205a23.81 23.81 0 0 0-2.241-.105z" fill="#112c41"/><path d="M834.554 359.168c-6.18 40.02-16.624 74.253-32.15 102.42-48.22 87.48-139.22 128.48-241.8 141.92-31.538 4.132-61.58-.4-86.42-4.44-27.45-4.47-51.33-10.36-72.46-17.03-1.46-.46-2.9-.93-4.33-1.4-.72-.23-1.43-.46-2.14-.7 2.87.64 203.803 46.62 319.93-45.87 113-90 97-216 89-269 .58-.17 12.69-4.33 13.27-4.49.55-.15 1.11-.31 1.65-.45 7.63-2.06 13.08-3.06 13.08-3.06 5.45 37.54 5.95 71.49 2.37 102.1z" fill="#f5b9ab"/><path d="M529.038 605.575c-19.34 0-37.949-1.641-54.943-4.888-26.023-4.975-50.44-11.051-72.574-18.06a442.84 442.84 0 0 1-4.341-1.403c-.716-.229-1.432-.461-2.146-.702-40.676-13.497-70.587-29.559-96.978-43.73l-2.247-1.206c-17.914-9.616-36.303-20.957-48.576-28.778a831.538 831.538 0 0 1-16.721-10.918 378.905 378.905 0 0 1-4.489-3.048c3.307 7.324 8.413 23.052-4.2 30.746-1.664 1.028-3.641 1.893-5.873 2.564-7.797 2.336-20.482-2.074-30.848-10.738-15.967-13.346-23.779-33.387-21.485-55.06-10.949-8.572-25.086-30.262-11.064-59.286-7.949-14.291-6.973-29.42 2.647-40.559 13.438-15.561 45.81-25.154 96.356-5.417 23.315 9.104 49.759 21.844 77.757 35.332 41.601 20.041 84.617 40.766 121.246 51.319 18.457 5.318 82.97 20.266 138.232-10.666 32.907-18.42 55.627-49.588 67.527-92.64.022-.079.054-.156.095-.228 2.98-5.242 17.991-14.04 32.508-22.549 3.375-1.978 6.713-3.935 9.846-5.814 13.76-8.256 32.487-16.636 50.598-24.739l5.217-2.336c21.599-9.691 43.159-17.841 60.71-22.947.157-.048.22-.066.283-.082.54-.159 1.125-.331 1.71-.492.564-.151 1.111-.3 1.647-.449 7.59-2.049 13.113-3.07 13.168-3.08a.999.999 0 0 1 1.171.84c5.272 36.312 6.07 70.751 2.374 102.359-4.38 37.788-15.238 72.373-32.271 102.792-24.205 43.238-60.404 77.936-107.592 103.128-40.075 21.395-86.754 34.984-134.992 39.3a356.79 356.79 0 0 1-31.752 1.435zM225.725 490.151c4.099 3.019 39.215 26.595 71.03 43.673l2.247 1.206c26.319 14.133 56.149 30.151 96.635 43.585.739.25 1.444.479 2.159.706 1.436.473 2.882.941 4.329 1.4 22.059 6.984 46.4 13.041 72.346 18.001 25.97 4.962 55.757 6.146 86.143 3.426 47.973-4.292 94.389-17.803 134.229-39.072 46.845-25.009 82.774-59.441 106.789-102.34 16.903-30.188 27.679-64.521 32.029-102.047v-.001c3.641-31.135 2.896-65.043-2.217-100.801-1.918.385-6.377 1.33-11.979 2.843-.536.148-1.088.299-1.651.45-.568.157-1.143.325-1.718.494l-.407-.924.3.954-.166.049c-17.434 5.073-38.902 13.188-60.419 22.843l-5.219 2.337c-18.057 8.08-36.729 16.435-50.386 24.629a1106.259 1106.259 0 0 1-9.864 5.825c-13.526 7.929-28.845 16.907-31.721 21.709-12.058 43.52-35.085 75.055-68.444 93.727-55.937 31.31-121.117 16.216-139.762 10.843-36.791-10.601-79.885-31.362-121.561-51.439-27.961-13.472-54.373-26.195-77.616-35.271-49.577-19.36-81.123-10.184-94.115 4.861-9.145 10.589-9.954 25.064-2.163 38.723a.997.997 0 0 1 .028.937c-14.032 28.496.122 49.634 10.696 57.631.282.214.431.56.391.911-3.427 30.119 13.348 47.7 20.719 53.86 9.879 8.257 21.801 12.522 28.99 10.357 2.064-.621 3.882-1.412 5.402-2.353 14.997-9.149 1.685-31.697 1.549-31.924a1 1 0 0 1 1.459-1.314c.086.065.368.202.554.293.611.301 1.242.609 1.384 1.213z" fill="#112c41"/></svg></g><g transform="translate(368.0 711.0) rotate(0.0 289.5 257.5) scale(1.018541322168666 1.0157790927021697)"><svg width="568.46" height="507" viewBox="0 0 568.46 507"><path d="M549.004 506H196.716c-9.641 0-17.457-7.816-17.457-17.457V18.457C179.26 8.816 187.075 1 196.716 1h352.288c9.641 0 17.457 7.816 17.457 17.457v470.087c-.001 9.64-7.816 17.456-17.457 17.456z" fill="#cbc8ff"/><path d="M549.004 507H196.716c-10.177 0-18.457-8.28-18.457-18.457V18.456C178.26 8.28 186.54 0 196.716 0h352.288c10.177 0 18.457 8.279 18.457 18.456v470.087C567.46 498.72 559.181 507 549.004 507zM196.716 2c-9.074 0-16.457 7.382-16.457 16.456v470.087c0 9.074 7.382 16.457 16.457 16.457h352.288c9.074 0 16.457-7.383 16.457-16.457V18.456C565.46 9.382 558.078 2 549.004 2z" fill="#112c41"/><path d="M535.73 43.715v416.733c0 8.748-7.099 15.847-15.846 15.847H276.029c-8.748 0-15.847-7.099-15.847-15.847V43.715c0-8.758 7.099-15.857 15.847-15.857h243.855c8.748 0 15.846 7.099 15.846 15.857z" fill="#9797f7"/><path d="M519.884 477.294H276.029c-9.289 0-16.847-7.558-16.847-16.847V43.715c0-9.295 7.558-16.857 16.847-16.857h243.855c9.289 0 16.847 7.562 16.847 16.857v416.732c-.001 9.29-7.558 16.847-16.847 16.847zM276.029 28.858c-8.187 0-14.847 6.665-14.847 14.857v416.732c0 8.187 6.66 14.847 14.847 14.847h243.855c8.187 0 14.847-6.66 14.847-14.847V43.715c0-8.192-6.66-14.857-14.847-14.857z" fill="#112c41"/><path d="M210.971 506H17.457C7.816 506 0 498.184 0 488.543V18.457C0 8.816 7.816 1 17.457 1h193.515c9.641 0 17.457 7.816 17.457 17.457v470.087c-.001 9.64-7.817 17.456-17.458 17.456z" fill="#dedffe"/><path d="M210.972 507H17.457C7.28 507-1 498.72-1 488.543V18.456C-1 8.28 7.28 0 17.457 0h193.515c10.177 0 18.457 8.279 18.457 18.456v470.087C229.428 498.72 221.148 507 210.972 507zM17.457 2C8.382 2 1 9.382 1 18.456v470.087C1 497.618 8.382 505 17.457 505h193.515c9.074 0 16.457-7.383 16.457-16.457V18.456C227.428 9.382 220.046 2 210.972 2z" fill="#112c41"/><path d="M174.488 147.481H53.94c-14.515 0-26.283-11.767-26.283-26.283V60.062c0-14.515 11.767-26.283 26.283-26.283h120.548c14.515 0 26.283 11.767 26.283 26.283v61.137c0 14.515-11.767 26.282-26.283 26.282z" fill="#cbc8ff"/><path d="M174.488 148.481H53.94c-15.044 0-27.283-12.239-27.283-27.283V60.062c0-15.044 12.239-27.283 27.283-27.283h120.548c15.044 0 27.283 12.239 27.283 27.283v61.136c0 15.044-12.239 27.283-27.283 27.283zM53.94 34.779c-13.941 0-25.283 11.342-25.283 25.283v61.136c0 13.941 11.342 25.283 25.283 25.283h120.548c13.941 0 25.283-11.342 25.283-25.283V60.062c0-13.941-11.342-25.283-25.283-25.283z" fill="#112c41"/><circle cx="20.999" cy="21.999" fill="#cbc8ff" r="8.707"/><path d="M20.999 31.705c-5.353 0-9.707-4.354-9.707-9.706 0-5.353 4.354-9.707 9.707-9.707s9.707 4.354 9.707 9.707c0 5.352-4.354 9.706-9.707 9.706zm0-17.413c-4.25 0-7.707 3.457-7.707 7.707 0 4.249 3.458 7.706 7.707 7.706s7.707-3.457 7.707-7.706c0-4.25-3.457-7.707-7.707-7.707z" fill="#112c41"/><path d="M14.576 28.863a.999.999 0 0 1-.707-1.707L26.144 14.88a.999.999 0 1 1 1.414 1.414L15.283 28.57a.999.999 0 0 1-.707.293z" fill="#112c41"/><circle cx="208.453" cy="21.999" fill="#cbc8ff" r="8.707"/><path d="M208.454 31.705c-5.353 0-9.707-4.354-9.707-9.706 0-5.353 4.354-9.707 9.707-9.707 5.352 0 9.707 4.354 9.707 9.707-.001 5.352-4.355 9.706-9.707 9.706zm0-17.413c-4.25 0-7.707 3.457-7.707 7.707 0 4.249 3.458 7.706 7.707 7.706s7.707-3.457 7.707-7.706c-.001-4.25-3.458-7.707-7.707-7.707z" fill="#112c41"/><path d="M202.03 28.863a.999.999 0 0 1-.707-1.707l12.275-12.275a.999.999 0 1 1 1.414 1.414L202.737 28.57a.997.997 0 0 1-.707.293z" fill="#112c41"/><circle cx="20.999" cy="160.285" fill="#cbc8ff" r="8.707"/><path d="M20.999 169.992c-5.353 0-9.707-4.354-9.707-9.707 0-5.352 4.354-9.706 9.707-9.706s9.707 4.354 9.707 9.706-4.354 9.707-9.707 9.707zm0-17.413c-4.25 0-7.707 3.457-7.707 7.706 0 4.25 3.458 7.707 7.707 7.707s7.707-3.457 7.707-7.707c0-4.249-3.457-7.706-7.707-7.706z" fill="#112c41"/><path d="M14.576 167.149a.999.999 0 0 1-.707-1.707l12.275-12.275a.999.999 0 1 1 1.414 1.414l-12.275 12.275a.999.999 0 0 1-.707.293z" fill="#112c41"/><circle cx="208.453" cy="160.285" fill="#cbc8ff" r="8.707"/><path d="M208.454 169.992c-5.353 0-9.707-4.354-9.707-9.707 0-5.352 4.354-9.706 9.707-9.706 5.352 0 9.707 4.354 9.707 9.706-.001 5.352-4.355 9.707-9.707 9.707zm0-17.413c-4.25 0-7.707 3.457-7.707 7.706 0 4.25 3.458 7.707 7.707 7.707s7.707-3.457 7.707-7.707c-.001-4.249-3.458-7.706-7.707-7.706z" fill="#112c41"/><path d="M202.03 167.149a.999.999 0 0 1-.707-1.707l12.275-12.275a.999.999 0 1 1 1.414 1.414l-12.275 12.275a.997.997 0 0 1-.707.293zm26.398 16.249H0a1 1 0 1 1 0-2h228.428a1 1 0 1 1 0 2z" fill="#112c41"/><circle cx="151.602" cy="270.402" fill="#cbc8ff" r="56.339"/><path d="M151.603 327.741c-31.617 0-57.339-25.722-57.339-57.339s25.722-57.339 57.339-57.339 57.339 25.722 57.339 57.339-25.723 57.339-57.339 57.339zm0-112.678c-30.514 0-55.339 24.825-55.339 55.339s24.825 55.339 55.339 55.339 55.339-24.825 55.339-55.339-24.825-55.339-55.339-55.339z" fill="#112c41"/><path d="M69.04 442.491H36.467a6.761 6.761 0 0 1-6.761-6.761V220.824a6.761 6.761 0 0 1 6.761-6.761H69.04a6.761 6.761 0 0 1 6.761 6.761V435.73a6.761 6.761 0 0 1-6.761 6.761z" fill="#b2b0f7"/><path d="M69.04 443.491H36.467c-4.279 0-7.761-3.481-7.761-7.761V220.824c0-4.279 3.481-7.761 7.761-7.761H69.04c4.279 0 7.761 3.481 7.761 7.761V435.73c0 4.279-3.481 7.761-7.761 7.761zM36.467 215.063a5.768 5.768 0 0 0-5.761 5.761V435.73a5.767 5.767 0 0 0 5.761 5.761H69.04a5.768 5.768 0 0 0 5.761-5.761V220.824a5.767 5.767 0 0 0-5.761-5.761z" fill="#112c41"/><g fill="#9797f7"><circle cx="51.729" cy="236.086" r="10.756"/><circle cx="51.729" cy="275.011" r="10.756"/><circle cx="51.729" cy="380.518" r="10.756"/><circle cx="51.729" cy="419.443" r="10.756"/><path d="M54.042 351.325h-5.65a5.37 5.37 0 0 1-5.37-5.37v-36.381a5.37 5.37 0 0 1 5.37-5.37h5.65a5.37 5.37 0 0 1 5.37 5.37v36.381a5.37 5.37 0 0 1-5.37 5.37zm145.705 12.17h-92.191a5 5 0 1 1 0-10h92.191a5 5 0 1 1 0 10zm0 31.754h-92.191a5 5 0 1 1 0-10h92.191a5 5 0 1 1 0 10zm0 32.78h-92.191a5 5 0 1 1 0-10h92.191a5 5 0 1 1 0 10z"/></g><path d="M535.73 43.715v416.733c0 8.748-7.099 15.847-15.846 15.847h-60.979V27.858h60.979c8.748 0 15.846 7.099 15.846 15.857z" fill="#b2b0f7"/><path d="M519.884 477.294h-60.979a1 1 0 0 1-1-1V27.858a1 1 0 0 1 1-1h60.979c9.289 0 16.847 7.562 16.847 16.857v416.732c-.001 9.29-7.558 16.847-16.847 16.847zm-59.979-2h59.979c8.187 0 14.847-6.66 14.847-14.847V43.715c0-8.192-6.66-14.857-14.847-14.857h-59.979z" fill="#112c41"/><path d="M442.515 27.858h16.389v448.436h-16.389z" fill="#9797f7"/><path d="M458.905 477.294h-16.39a1 1 0 0 1-1-1V27.858a1 1 0 0 1 1-1h16.39a1 1 0 0 1 1 1v448.437a1 1 0 0 1-1 .999zm-15.39-2h14.39V28.858h-14.39zM413.67 360.861c-10.797 31.98-32.687 51.688-58.551 52.723-.717.031-1.434.041-2.151.041-12.579 0-25.619-4.384-38.505-12.866-2.796-1.823-5.572-3.852-8.348-6.074a134.99 134.99 0 0 1-10.141-9.024c-12.435-12.2-24.41-28.067-35.79-47.447V317.02c15.949 30.556 33.107 53.675 50.459 68.262 2.796 2.356 5.593 4.487 8.4 6.382 11.985 8.144 23.98 12.159 35.668 11.688 21.46-.86 39.878-17.967 49.261-45.768 9.547-28.272 8.686-62.772-2.407-97.138-13.071-40.441-39.703-78.147-77.041-109.021a5.128 5.128 0 0 1-.676-7.211 5.128 5.128 0 0 1 7.211-.676c38.833 32.113 66.582 71.458 80.247 113.763 11.767 36.435 12.607 73.219 2.364 103.56z" fill="#112c41"/><path d="M319.041 391.663a113.445 113.445 0 0 1-4.404 8.789c-.061.102-.113.205-.174.307-12.21 21.706-30.454 36.118-54.28 42.91v-10.704c19.883-6.392 35.166-18.981 45.511-37.511.144-.256.287-.512.42-.768a101.016 101.016 0 0 0 4.528-9.403c35.483-83.853-18.848-238.569-19.432-240.177a5.123 5.123 0 0 1 9.649-3.442c.154.43 15.468 43.729 24.82 96.718 11.657 66.12 9.413 117.603-6.638 153.281z" fill="#ff90d8"/><path d="M368.763 27.858v122.028a7.838 7.838 0 0 1-7.838 7.838H260.183V43.715c0-8.757 7.099-15.857 15.857-15.857z" fill="#b2b0f7"/><path d="M360.924 158.724H260.183a1 1 0 0 1-1-1V43.715c0-9.295 7.562-16.857 16.857-16.857h92.723a1 1 0 0 1 1 1v122.028c0 4.873-3.965 8.838-8.839 8.838zm-99.741-2h99.742a6.845 6.845 0 0 0 6.838-6.838V28.858H276.04c-8.192 0-14.857 6.665-14.857 14.857z" fill="#112c41"/><path d="M519.884 477.294H276.029c-9.289 0-16.847-7.558-16.847-16.847V43.715c0-9.295 7.558-16.857 16.847-16.857h243.855c9.289 0 16.847 7.562 16.847 16.857v416.732c-.001 9.29-7.558 16.847-16.847 16.847zM276.029 28.858c-8.187 0-14.847 6.665-14.847 14.857v416.732c0 8.187 6.66 14.847 14.847 14.847h243.855c8.187 0 14.847-6.66 14.847-14.847V43.715c0-8.192-6.66-14.857-14.847-14.857z" fill="#112c41"/></svg></g><g transform="translate(676.0 852.0) rotate(0.0 82.0 119.5) scale(1.013490547964676 1.0111095128905887)"><svg width="161.817" height="236.374" viewBox="0 0 161.817 236.374"><path d="m17.92 34.083 10.527-6.767 96.44 150.009-10.527 6.768z" fill="#badcee"/><path d="M114.354 185.088a1.006 1.006 0 0 1-.841-.459L17.077 34.625a1 1 0 0 1 .3-1.382l10.526-6.768c.224-.144.495-.189.753-.137.259.057.485.214.629.437l96.436 150.004a1 1 0 0 1-.3 1.382l-10.527 6.768c-.162.104-.35.159-.54.159zM19.301 34.385l95.354 148.321 8.845-5.687L28.145 28.698z" fill="#112c41"/><path d="M11.527 1 1 7.767l4.324 18.297 14.85 11.529 10.527-6.768-4.324-18.296z" fill="#badcee"/><path d="M20.174 38.593a.994.994 0 0 1-.613-.21L4.711 26.854a1.004 1.004 0 0 1-.36-.56L.027 7.998a.999.999 0 0 1 .432-1.071L10.985.159a.999.999 0 0 1 1.154.051L26.99 11.739c.18.141.308.338.36.56l4.324 18.296a.999.999 0 0 1-.432 1.071l-10.527 6.768a1 1 0 0 1-.541.159zM6.216 25.49l14.012 10.879 9.337-6.003-4.08-17.264L11.472 2.224 2.136 8.227z" fill="#112c41"/><path d="m97.31 130.577-13.158 8.459-17.342-15.408a2.94 2.94 0 0 1 .363-4.671l18.164-11.678a2.94 2.94 0 0 1 4.366 1.504z" fill="#ff90d8"/><path d="M84.151 140.036a.998.998 0 0 1-.664-.252l-17.341-15.407a3.912 3.912 0 0 1-1.311-3.253 3.91 3.91 0 0 1 1.798-3.008l18.164-11.677a3.915 3.915 0 0 1 3.414-.411 3.919 3.919 0 0 1 2.437 2.427l7.606 21.793a1 1 0 0 1-.404 1.17l-13.158 8.459a1.005 1.005 0 0 1-.541.159zm2.774-32.224c-.366 0-.729.104-1.046.309l-18.165 11.677a1.926 1.926 0 0 0-.885 1.481 1.928 1.928 0 0 0 .646 1.603l16.774 14.903 11.857-7.623-7.347-21.049c-.197-.564-.634-1-1.2-1.194a1.963 1.963 0 0 0-.634-.107z" fill="#112c41"/><path d="m153.467 232.089-1.154.742c-7.433 4.779-17.332 2.627-22.111-4.806l-57.105-88.826a3.544 3.544 0 0 1 1.064-4.897l22.11-14.214a3.544 3.544 0 0 1 4.897 1.064l57.105 88.826c4.779 7.433 2.627 17.332-4.806 22.111z" fill="#ff90d8"/><path d="M143.695 236.378c-1.212 0-2.432-.131-3.645-.395a16.887 16.887 0 0 1-10.689-7.418l-57.105-88.827a4.549 4.549 0 0 1 1.365-6.278l22.11-14.214a4.49 4.49 0 0 1 3.422-.618c1.186.258 2.2.962 2.856 1.982l57.105 88.826c2.456 3.82 3.277 8.367 2.312 12.805s-3.6 8.233-7.419 10.688l-1.153.741a16.872 16.872 0 0 1-9.159 2.708zM98.182 120.523c-.482 0-.955.138-1.37.404l-22.11 14.214a2.548 2.548 0 0 0-.764 3.515l57.105 88.827a14.903 14.903 0 0 0 9.431 6.546 14.91 14.91 0 0 0 11.298-2.04l1.154-.741c3.37-2.167 5.695-5.517 6.546-9.432s.126-7.928-2.041-11.298l-57.105-88.826a2.522 2.522 0 0 0-1.599-1.11 2.584 2.584 0 0 0-.545-.059zm55.285 111.566h.01z" fill="#112c41"/></svg></g><g transform="translate(1255.0 442.0) rotate(-25.816824686646346 -162.5 135.5) scale(-1.172316027544016 1.1707780705923014)"><svg width="277.229" height="231.47" viewBox="0 0 277.229 231.47"><circle cx="247.656" cy="102.004" fill="#ffd6c0" r="28.57"/><path d="M244.644 130.414a28.567 28.567 0 0 0 31.223-23.9A28.572 28.572 0 0 1 222.273 90q.086-.762.207-1.509a28.589 28.589 0 0 0 22.164 41.924z" fill="#f5b9ab"/><path d="M247.678 131.575a29.589 29.589 0 0 1-23.77-11.952 1 1 0 0 1 1.606-1.193 27.569 27.569 0 1 0-4.976-21.4 1 1 0 0 1-1.968-.358 29.571 29.571 0 1 1 29.108 34.907z" fill="#112c41"/><path d="M233.182 108.859a1 1 0 0 1-.973-.776 18.452 18.452 0 0 1 2.185-13.792A17.56 17.56 0 0 1 260.52 89.7a1 1 0 1 1-1.248 1.563 15.56 15.56 0 0 0-23.168 4.07 16.466 16.466 0 0 0-1.946 12.306 1 1 0 0 1-.751 1.2.966.966 0 0 1-.225.02z" fill="#112c41"/><circle cx="143.688" cy="127.943" fill="#ffd6c0" r="102.5"/><path d="M105.269 32.916c.32-.13.643-.241.964-.367l10.867 9.069c-49.479 20.172-73.762 73.994-54.03 122.8 19.768 48.9 76.227 74.243 125.891 54.164A98.268 98.268 0 0 0 203 211.57a102.51 102.51 0 1 1-97.731-178.654z" fill="#f5b9ab"/><path d="M143.675 231.5a103.747 103.747 0 1 1 38.807-7.6 103.3 103.3 0 0 1-38.807 7.6zm.025-205.112a101.729 101.729 0 1 0 39.626 8.112 101.38 101.38 0 0 0-39.626-8.112z" fill="#112c41"/><ellipse cx="126.535" cy="112.293" fill="#112c41" rx="6.828" ry="9.104" transform="matrix(.92709884 -.37481696 .37481696 .92709884 -32.865 55.614)"/><ellipse cx="111.4" cy="85.723" fill="#112c41" rx="14.13" ry="9.336" transform="matrix(.86245184 -.50613914 .50613914 .86245184 -28.065 68.176)"/><ellipse cx="210.167" cy="121.3" fill="#ffa9dc" rx="12.121" ry="8.009" transform="matrix(.88267705 -.46998003 .46998003 .88267705 -32.351 113.007)"/><ellipse cx="118.423" cy="139.798" fill="#ffa9dc" rx="8.009" ry="12.121" transform="matrix(.07459583 -.99721385 .99721385 .07459583 -29.819 247.463)"/><g fill="#112c41"><ellipse cx="198.688" cy="69.502" rx="8.6" ry="13.016" transform="matrix(.21807511 -.97593199 .97593199 .21807511 87.53 248.252)"/><path d="M196.394 62.64a17.19 17.19 0 0 1 3.733.421 14.84 14.84 0 0 1 7.43 3.9c.905.939 2.354 2.83 1.882 4.942-.587 2.626-4.064 4.46-8.456 4.46a17.133 17.133 0 0 1-3.734-.422c-5.828-1.3-10.092-5.352-9.313-8.843.587-2.626 4.065-4.46 8.458-4.46m0-2c-5.269 0-9.583 2.33-10.408 6.024-1.037 4.638 3.814 9.666 10.826 11.238a19.128 19.128 0 0 0 4.171.47c5.269 0 9.583-2.33 10.408-6.024 1.036-4.635-3.812-9.664-10.828-11.232a19.178 19.178 0 0 0-4.17-.469z"/><ellipse cx="194.736" cy="98.632" rx="6.828" ry="9.104" transform="matrix(.99979717 -.02013974 .02013974 .99979717 -1.947 3.943)"/><path d="M147.13 125.111c3.926 11.862 13.4 19.595 22.647 17.809s15.162-12.487 14.391-24.958z"/><path d="M167.105 144.175c-8.685 0-17.177-7.428-20.924-18.75a1 1 0 0 1 .76-1.3l37.037-7.149a1 1 0 0 1 1.188.92c.817 13.209-5.576 24.144-15.2 26a15.132 15.132 0 0 1-2.861.279zm-18.65-18.3c4.029 10.963 12.781 17.678 21.132 16.064s13.976-11.1 13.635-22.775z"/></g><path d="M176.564 138.971c-3.753-3.592-10.1-4.662-16.064-2.252a17.713 17.713 0 0 0-4.123 2.342c4.029 3.244 8.742 4.758 13.4 3.859a14.683 14.683 0 0 0 7.112-3.625q-.159-.165-.325-.324z" fill="#ffa6e0"/><path d="M167.121 144.173a18.217 18.217 0 0 1-11.371-4.333 1 1 0 0 1 .02-1.574 18.818 18.818 0 0 1 4.355-2.475c6.124-2.476 13.008-1.487 17.13 2.458.121.116.239.233.354.354a1 1 0 0 1-.05 1.434 15.613 15.613 0 0 1-7.594 3.865 15.025 15.025 0 0 1-2.844.271zm-9.044-5.083a15.015 15.015 0 0 0 11.51 2.848 13.441 13.441 0 0 0 5.8-2.681c-3.609-3.042-9.343-3.7-14.511-1.611a16.92 16.92 0 0 0-2.799 1.444z" fill="#112c41"/><circle cx="31.508" cy="147.949" fill="#ffd6c0" r="30.5"/><path d="M60.437 157.932a33.178 33.178 0 0 1-5.358 5.413c-12.966 10.761-32.489 8.455-43.243-4.5-7.059-8.505-8.194-19.14-4.836-28.866-8.226 11.018-8.7 26.05.473 37.11a30.492 30.492 0 0 0 42.948 4c4.457-3.696 8.261-8.042 10.016-13.157z" fill="#f5b9ab"/><path d="M31.5 179.466a31.508 31.508 0 1 1 28.232-45.5 1 1 0 0 1-1.793.886A29.6 29.6 0 0 0 20.451 120.6a29.5 29.5 0 0 0 22.114 54.7A31.46 31.46 0 0 0 59.5 157.58a1 1 0 0 1 1.872.7 33.523 33.523 0 0 1-18.058 18.867 31.464 31.464 0 0 1-11.814 2.319z" fill="#112c41"/><path d="M49.253 146.854a1 1 0 0 1-.954-.7 17.277 17.277 0 0 0-21.49-11.55A16.764 16.764 0 0 0 16.2 144.713a1 1 0 0 1-1.872-.713 18.755 18.755 0 0 1 11.877-11.3 19.277 19.277 0 0 1 24 12.853 1 1 0 0 1-.953 1.3z" fill="#112c41"/><path d="M37 107.924c18.817-19.516 45.809-36.393 77.86-46.892a213.323 213.323 0 0 1 40.476-9.084 64.009 64.009 0 0 0-10.241-25.543c.136.1.282.188.408.288a75.849 75.849 0 0 1 22.07 24.157 187.56 187.56 0 0 1 7.542-.288c18.32-.309 35.367 2.184 50.027 7.2a1.861 1.861 0 0 0 2.318-2.511 89.573 89.573 0 0 0-17.986-25.972C182.5 2.165 139.131-7.2 99.331 8.89a108.729 108.729 0 0 0-18.955 9.918c-30.6 20.116-48.015 54.068-45.907 88.174a1.477 1.477 0 0 0 2.531.942z" fill="#fcaa51"/><path d="M37 107.924a155.9 155.9 0 0 1 15.824-14.263c-1.663-30.338 13.9-60.48 41.124-78.367a98.089 98.089 0 0 1 30.159-13.153 109.121 109.121 0 0 0-43.731 16.667c-30.6 20.116-48.015 54.068-45.907 88.174a1.477 1.477 0 0 0 2.531.942z" fill="#ff9522"/><path d="M35.93 109.2a2.435 2.435 0 0 1-.87-.157 2.671 2.671 0 0 1-1.619-2.551c-1.667-34.7 16.108-68.616 46.388-88.514A109.848 109.848 0 0 1 98.956 7.963 106.761 106.761 0 0 1 159.4 1.9a97.232 97.232 0 0 1 50.778 26.675 89.845 89.845 0 0 1 18.115 26.1 2.9 2.9 0 0 1-.331 3.24 3.092 3.092 0 0 1-3.314.741c-16.6-5.658-36.317-8.015-57.02-6.81a1.015 1.015 0 0 1-.92-.491 76.832 76.832 0 0 0-17.971-21.022 66.817 66.817 0 0 1 7.574 21.444 1 1 0 0 1-.864 1.164 212.386 212.386 0 0 0-40.28 9.038C84.77 71.937 57.4 88.362 38.093 108.229a3.06 3.06 0 0 1-2.163.971zm44.449-90.39.549.836C51.236 39.156 33.806 72.4 35.439 106.392c.01.2.061.675.328.776a.941.941 0 0 0 .891-.333c19.526-20.095 47.188-36.7 77.891-46.755a214.7 214.7 0 0 1 39.607-8.992 62.841 62.841 0 0 0-9.888-24.109 1 1 0 0 1 1.38-1.4 76.631 76.631 0 0 1 22.476 24.236c20.738-1.134 40.5 1.263 57.173 6.95a1.147 1.147 0 0 0 1.186-.191c.279-.308.116-.8 0-1.067a87.881 87.881 0 0 0-17.714-25.52 95.246 95.246 0 0 0-49.746-26.121 104.778 104.778 0 0 0-59.318 5.951 107.879 107.879 0 0 0-18.777 9.829z" fill="#112c41"/></svg></g><g transform="translate(726.0 971.0) rotate(0.0 127.5 131.5) scale(1.0212213807714026 1.0161384421013588)"><svg width="249.701" height="258.823" viewBox="0 0 249.701 258.823"><ellipse cx="97.216" cy="40.249" fill="#ffd6c0" rx="22.518" ry="49.904" transform="matrix(.7216 -.6923 .6923 .7216 -.7983 78.5128)"/><path d="M122.488 80.505c-3.699 0-7.986-.945-12.703-2.842-9.724-3.908-20.214-11.413-29.539-21.132s-16.39-20.51-19.893-30.387c-3.596-10.139-3.021-18.174 1.62-22.626 4.641-4.451 12.694-4.695 22.674-.683 9.723 3.908 20.213 11.412 29.539 21.131 9.325 9.719 16.389 20.511 19.893 30.387 3.596 10.139 3.021 18.174-1.619 22.626-2.449 2.348-5.845 3.526-9.972 3.526zM71.945 1.983c-3.597 0-6.519.993-8.587 2.979-4.04 3.875-4.437 11.161-1.119 20.514 3.411 9.615 10.318 20.152 19.451 29.671 9.132 9.519 19.375 16.855 28.841 20.661 9.208 3.701 16.504 3.606 20.543-.271 4.04-3.875 4.437-11.161 1.119-20.514-3.411-9.615-10.318-20.152-19.451-29.671S93.366 8.496 83.901 4.691c-4.492-1.805-8.53-2.708-11.956-2.708z" fill="#112c41"/><path d="M248.701 105.666C199.4 84.341 146.339 55.733 104.507 39.401 26.605 8.985-13.986 47.628 6.995 84.412c-13.963 28.345-.702 50.027 10.993 58.865-5.237 45.969 35.299 70.002 50.984 65.293 2.197-.66 4.074-1.493 5.643-2.456 16.034-9.779 1.882-33.292 1.882-33.292.485.37 2.004.854 1.447 1.104-.348.156 37.661 25.917 71.652 44.156 23.356 12.533 49.958 27.012 84.426 39.742" fill="#ffd6c0"/><g fill="#112c41"><path d="M234.021 258.823a1 1 0 0 1-.346-.062c-33.383-12.329-59.319-26.253-82.203-38.538l-2.35-1.262c-17.906-9.607-36.305-20.955-48.587-28.782a829.535 829.535 0 0 1-16.72-10.917 392.157 392.157 0 0 1-4.432-3.005c1.095 2.4 2.378 5.696 3.163 9.331 2.105 9.746-.458 17.138-7.411 21.378-1.68 1.032-3.658 1.895-5.876 2.562-7.797 2.34-20.481-2.077-30.847-10.743-15.966-13.347-23.776-33.389-21.479-55.058-10.953-8.57-25.095-30.256-11.067-59.282-7.949-14.291-6.974-29.42 2.645-40.558 13.438-15.56 45.809-25.155 96.359-5.417 23.315 9.104 49.761 21.844 77.758 35.332 21.938 10.569 44.623 21.498 66.469 30.947a1 1 0 0 1-.794 1.836c-21.884-9.466-44.587-20.403-66.543-30.981-27.962-13.471-54.374-26.195-77.618-35.271-49.578-19.356-81.126-10.18-94.118 4.862C.881 55.783.073 70.259 7.864 83.917c.165.288.175.64.028.938-14.038 28.497.12 49.631 10.699 57.625a1 1 0 0 1 .391.911c-3.431 30.116 13.342 47.699 20.713 53.86 9.879 8.258 21.8 12.519 28.989 10.361 2.052-.616 3.872-1.407 5.408-2.352 14.999-9.146 1.685-31.697 1.548-31.924a1.002 1.002 0 0 1 .19-1.261.997.997 0 0 1 1.273-.05c.084.064.365.202.551.293.612.301 1.242.61 1.382 1.216 4.13 3.036 39.34 26.659 71.031 43.665l2.351 1.262c22.826 12.254 48.697 26.143 81.949 38.423a1 1 0 0 1-.346 1.939z"/><path d="M6.992 85.405a1 1 0 0 1-.883-1.467c5.772-10.939 19.524-22.45 31.631-22.044a1 1 0 0 1 .964 1.035c-.02.552-.463 1.029-1.035.963-8.83-.299-22.74 7.616-29.792 20.979a.996.996 0 0 1-.885.534zm10.994 58.872-.057-.002a.999.999 0 0 1-.943-1.054c.876-15.689 13.597-30.541 25.389-35.835a.997.997 0 0 1 1.322.503.999.999 0 0 1-.502 1.321c-11.003 4.94-23.388 19.391-24.211 34.122a1.002 1.002 0 0 1-.998.945zm58.511 29.54a.999.999 0 0 1-.847-.467c-4.636-7.362-14.394-16.111-21.309-19.106a1 1 0 1 1 .795-1.836c7.223 3.129 17.392 12.23 22.206 19.876a1.002 1.002 0 0 1-.845 1.533z"/></g></svg></g><g transform="translate(610.0 647.0) rotate(0.0 68.5 45.5) scale(1.0459931590520402 1.0524854849529273)"><svg width="130.976" height="86.462" viewBox="0 0 130.976 86.462"><path d="M47.131 45.308C46.815 66.3 41.239 84.09 29.074 85.403 18.295 86.566 8.269 70.293 3.065 49.945-4.159 21.7 8.945 11.039 21.123 9.85c16-1.562 26.379 10.85 26.008 35.458z" fill="#ffd6c0"/><path d="M28.001 86.461c-10.145 0-20.209-14-25.904-36.268C-1.382 36.592-.476 25.492 4.714 18.09c3.71-5.291 9.503-8.571 16.312-9.235 6.833-.664 12.83 1.177 17.343 5.332 6.602 6.08 9.978 16.847 9.762 31.135-.369 24.479-7.453 39.834-18.95 41.075a10.85 10.85 0 0 1-1.18.064zm-4.207-75.743c-.838 0-1.696.042-2.574.128-3.602.352-10.322 1.909-14.869 8.393C1.506 26.148.705 36.681 4.034 49.698c5.568 21.77 15.584 35.7 24.933 34.712 10.396-1.123 16.813-15.745 17.165-39.116.207-13.703-2.946-23.95-9.117-29.634-3.568-3.286-8.006-4.942-13.221-4.942z" fill="#112c41"/><path d="M86.331 38.712c-.335 22.245-6.244 41.096-19.135 42.488-11.422 1.233-22.046-16.012-27.56-37.573C31.981 13.696 45.866 2.4 58.771 1.14c16.955-1.657 27.953 11.497 27.56 37.572z" fill="#ffd6c0"/><path d="M66.058 82.262c-10.721 0-21.363-14.818-27.391-38.387-3.682-14.395-2.726-26.141 2.764-33.969C45.352 4.313 51.476.846 58.674.144c7.22-.712 13.562 1.241 18.331 5.635 6.983 6.431 10.554 17.824 10.327 32.947-.391 25.906-7.877 42.156-20.027 43.468-.416.045-.832.068-1.247.068zM61.603 1.998c-.891 0-1.802.046-2.735.137-3.827.374-10.968 2.029-15.799 8.919-5.144 7.336-5.996 18.514-2.464 32.325 5.908 23.1 16.544 37.882 26.484 36.827 11.049-1.192 17.868-16.71 18.242-41.509.219-14.539-3.129-25.413-9.681-31.447-3.791-3.491-8.507-5.252-14.047-5.252zm24.728 36.714h.01z" fill="#112c41"/><path d="M128.374 45.206c-4.548 21.778-13.925 39.166-26.846 38.087-11.449-.956-18.609-19.902-19.934-42.118C79.755 10.336 95.53 1.878 108.439 3.088c16.962 1.59 25.266 16.591 19.935 42.118z" fill="#ffd6c0"/><path d="M102.639 84.341c-.397 0-.793-.017-1.194-.051-11.162-.932-19.345-17.832-20.849-43.056-.885-14.831 2.281-26.182 9.155-32.827 4.911-4.746 11.582-6.979 18.782-6.315 7.226.678 13.08 3.793 16.93 9.01 5.637 7.639 6.982 19.503 3.89 34.309-5.123 24.526-15.051 38.93-26.714 38.93zm3.467-80.362c-4.05 0-9.946 1.014-14.965 5.865-6.441 6.228-9.398 17.04-8.549 31.271 1.419 23.801 9.062 40.351 19.019 41.183 11.076.912 20.713-13.019 25.784-37.296 2.973-14.233 1.748-25.545-3.541-32.713-3.552-4.813-8.77-7.574-15.507-8.205a23.776 23.776 0 0 0-2.241-.105zm22.268 41.227h.01z" fill="#112c41"/></svg></g></svg>